<?xml version="1.0" standalone="no"?>
<!DOCTYPE svg PUBLIC "-//W3C//DTD SVG 20010904//EN"
 "http://www.w3.org/TR/2001/REC-SVG-20010904/DTD/svg10.dtd">
<svg version="1.0" xmlns="http://www.w3.org/2000/svg"
 width="119.000000pt" height="244.000000pt" viewBox="0 0 119.000000 244.000000"
 preserveAspectRatio="xMidYMid meet">

<g transform="translate(0.000000,244.000000) scale(0.100000,-0.100000)"
fill="#000000" stroke="none">
<path d="M774 2349 c-10 -17 13 -36 27 -22 12 12 4 33 -11 33 -5 0 -12 -5 -16
-11z"/>
<path d="M430 2335 c0 -13 23 -15 150 -15 127 0 150 2 150 15 0 13 -23 15
-150 15 -127 0 -150 -2 -150 -15z"/>
<path d="M10 1220 l0 -1000 585 0 585 0 -2 997 -3 998 -582 3 -583 2 0 -1000z"/>
<path d="M470 115 c0 -13 21 -15 125 -15 104 0 125 2 125 15 0 13 -21 15 -125
15 -104 0 -125 -2 -125 -15z"/>
</g>
</svg>
